<?xml version="1.0" encoding="utf-8"?> <!DOCTYPE svg PUBLIC "-//W3C//DTD SVG 1.1//EN" "http://www.w3.org/Graphics/SVG/1.1/DTD/svg11.dtd">

<svg version="1.1" xmlns="http://www.w3.org/2000/svg" xmlns:xlink="http://www.w3.org/1999/xlink" width="32" height="32" viewBox="0 0 32 32" xml:space="preserve">

<!-- white background to match the PNG --> <rect x="0" y="0" width="32" height="32" fill="#ffffff"/> <!-- paper and roller -->

<rect x="7" y="2.5" width="18" height="8.5" rx="0.6" ry="0.6" fill="#ffffff" stroke="#000000" stroke-width="1.6" stroke-linecap="round" stroke-linejoin="round"/>
<rect x="6" y="10.4" width="20" height="1.6" rx="0.8" ry="0.8" fill="#000000"/>

<!-- crank handle (left) -->

<rect x="2.2" y="11.6" width="2" height="2.4" rx="0.4" ry="0.4" fill="#000000"/>
<rect x="4.8" y="12.1" width="1.6" height="1.0" rx="0.3" ry="0.3" fill="#ffffff" />

<!-- typewriter body outline -->

<path d="M4.0,12.8 L6.6,12.8 C7.2,12.8 7.6,13.3 7.6,13.9 L8.6,17.6 C9.0,18.7 9.0,19.8 8.6,20.9 L6.3,25.6 C5.6,27.0 6.5,28.8 8.2,28.8 L23.8,28.8 C25.5,28.8 26.4,27.0 25.7,25.6 L23.4,20.9 C23.0,19.8 23.0,18.7 23.4,17.6 L24.4,13.9 C24.4,13.3 24.8,12.8 25.4,12.8 L28.0,12.8" fill="none" stroke="#000000" stroke-width="1.6" stroke-linecap="round" stroke-linejoin="round"/>

<!-- keys: two rows of circular keys (filled black with small white center) --> <!-- top row --> <g fill="#000000"> <circle cx="10" cy="15.2" r="1.6"/> <circle cx="13.2" cy="15.2" r="1.6"/> <circle cx="16.4" cy="15.2" r="1.6"/> <circle cx="19.6" cy="15.2" r="1.6"/> <circle cx="22.8" cy="15.2" r="1.6"/> </g> <!-- bottom row --> <g fill="#000000"> <circle cx="11.6" cy="18.2" r="1.6"/> <circle cx="14.8" cy="18.2" r="1.6"/> <circle cx="18.0" cy="18.2" r="1.6"/> <circle cx="21.2" cy="18.2" r="1.6"/> <circle cx="24.4" cy="18.2" r="1.6"/> </g> <!-- small white centers for keys --> <g fill="#ffffff"> <circle cx="10" cy="15.2" r="0.55"/> <circle cx="13.2" cy="15.2" r="0.55"/> <circle cx="16.4" cy="15.2" r="0.55"/> <circle cx="19.6" cy="15.2" r="0.55"/> <circle cx="22.8" cy="15.2" r="0.55"/>
<circle cx="11.6" cy="18.2" r="0.55"/>
<circle cx="14.8" cy="18.2" r="0.55"/>
<circle cx="18.0" cy="18.2" r="0.55"/>
<circle cx="21.2" cy="18.2" r="0.55"/>
<circle cx="24.4" cy="18.2" r="0.55"/>

</g> <!-- space bar --> <rect x="8" y="21.6" width="16" height="1.8" rx="0.9" ry="0.9" fill="#000000"/> </svg>